HIERARCHY
ROOT SpineBase
{
  OFFSET 0.000000 0.000000 0.000000
  CHANNELS 6 Xposition Yposition Zposition Zrotation Xrotation Yrotation
  JOINT SpineMid
  {
    OFFSET -0.000000 26.075678 0.000000
    CHANNELS 3 Zrotation Xrotation Yrotation
    JOINT SpineShoulder
    {
      OFFSET -0.328763 19.491780 -0.578805
      CHANNELS 3 Zrotation Xrotation Yrotation
      JOINT Neck
      {
        OFFSET -0.145262 6.448539 -0.432556
        CHANNELS 3 Zrotation Xrotation Yrotation
        JOINT Head
        {
          OFFSET -0.973736 13.284062 -2.915714
          CHANNELS 3 Zrotation Xrotation Yrotation
          End Site
          {
            OFFSET 0 0 0
          }
        }
      }
      JOINT ShoulderLeft
      {
        OFFSET -14.434920 -1.495286 1.465985
        CHANNELS 3 Zrotation Xrotation Yrotation
        JOINT ElbowLeft
        {
          OFFSET 0.286329 4.541910 -28.372029
          CHANNELS 3 Zrotation Xrotation Yrotation
          JOINT WristLeft
          {
            OFFSET 4.433217 -24.923322 8.442332
            CHANNELS 3 Zrotation Xrotation Yrotation
            JOINT HandLeft
            {
              OFFSET 6.537464 -3.909376 -3.321378
              CHANNELS 3 Zrotation Xrotation Yrotation
              JOINT HandTipLeft
              {
                OFFSET 0.224782 -0.102038 -0.894552
                CHANNELS 3 Zrotation Xrotation Yrotation
                End Site
                {
                  OFFSET 0 0 0
                }
              }
              JOINT ThumbLeft
              {
                OFFSET -0.258453 0.510455 -2.106518
                CHANNELS 3 Zrotation Xrotation Yrotation
                End Site
                {
                  OFFSET 0 0 0
                }
              }
            }
          }
        }
      }
      JOINT ShoulderRight
      {
        OFFSET 13.928809 -3.707303 -3.089466
        CHANNELS 3 Zrotation Xrotation Yrotation
        JOINT ElbowRight
        {
          OFFSET 3.336245 -22.899839 -1.740388
          CHANNELS 3 Zrotation Xrotation Yrotation
          JOINT WristRight
          {
            OFFSET -3.747898 -18.511753 -9.716471
            CHANNELS 3 Zrotation Xrotation Yrotation
            JOINT HandRight
            {
              OFFSET -4.118875 -6.278109 -3.708210
              CHANNELS 3 Zrotation Xrotation Yrotation
              JOINT HandTipRight
              {
                OFFSET -1.449157 -5.872077 -2.382995
                CHANNELS 3 Zrotation Xrotation Yrotation
                End Site
                {
                  OFFSET 0 0 0
                }
              }
              JOINT ThumbRight
              {
                OFFSET 1.402704 -1.721489 -2.128334
                CHANNELS 3 Zrotation Xrotation Yrotation
                End Site
                {
                  OFFSET 0 0 0
                }
              }
            }
          }
        }
      }
    }
  }
  JOINT HipLeft
  {
    OFFSET -6.035209 0.865680 -2.466395
    CHANNELS 3 Zrotation Xrotation Yrotation
    JOINT KneeLeft
    {
      OFFSET 0.494415 -27.221553 5.003277
      CHANNELS 3 Zrotation Xrotation Yrotation
      JOINT AnkleLeft
      {
        OFFSET -4.941709 -34.017852 10.461936
        CHANNELS 3 Zrotation Xrotation Yrotation
        JOINT FootLeft
        {
          OFFSET -1.997291 -1.753048 -15.675134
          CHANNELS 3 Zrotation Xrotation Yrotation
          End Site
          {
            OFFSET 0 0 0
          }
        }
      }
    }
  }
  JOINT HipRight
  {
    OFFSET 5.572824 1.458081 -3.826149
    CHANNELS 3 Zrotation Xrotation Yrotation
    JOINT KneeRight
    {
      OFFSET -1.260608 -26.264302 2.397926
      CHANNELS 3 Zrotation Xrotation Yrotation
      JOINT AnkleRight
      {
        OFFSET 1.792146 -33.979614 12.818973
        CHANNELS 3 Zrotation Xrotation Yrotation
        JOINT FootRight
        {
          OFFSET -0.995234 -2.939684 -13.058996
          CHANNELS 3 Zrotation Xrotation Yrotation
          End Site
          {
            OFFSET 0 0 0
          }
        }
      }
    }
  }
}
MOTION
Frames: 15
Frame Time: 0.033333
21.247816 68.231125 304.468053 3.156440 -4.709021 -2.831503 -0.559158 -0.926912 2.987295 0.058430 -0.647005 0.064277 -3.093696 14.089978 0.677044 0.000000 0.000000 0.000000 -3.564790 -0.213969 -4.034680 -12.923029 -15.617579 -5.497993 -6.607465 -3.322491 -30.963969 33.649067 -45.292173 35.982949 0.000000 0.000000 0.000000 0.000000 0.000000 0.000000 0.149767 -1.114730 -1.301255 2.193346 -0.881709 0.232246 0.649440 1.060835 2.410891 3.953699 -1.967354 -3.410263 0.000000 0.000000 0.000000 0.000000 0.000000 0.000000 9.904855 6.839590 4.263531 -10.191441 -3.241454 -1.209962 -15.088183 45.196085 13.178326 0.000000 0.000000 0.000000 -4.790002 8.669575 2.948421 1.133061 -9.305856 0.051895 1.909393 3.340679 -8.045441 0.000000 0.000000 0.000000
21.186931 67.946598 303.327560 4.169246 -5.775528 -8.840066 -0.412999 -0.964244 9.101698 0.102413 -0.600170 0.103013 -2.375570 14.853840 0.752025 0.000000 0.000000 0.000000 -4.580989 1.532455 -3.756582 -16.596084 -20.747936 -8.845090 -3.733956 1.304815 -28.979916 31.555445 -47.189982 31.483670 0.000000 0.000000 0.000000 0.000000 0.000000 0.000000 2.639900 -4.995647 -2.254131 1.850691 3.629385 -0.970603 -4.430869 5.828184 2.096867 7.088872 -5.533816 -1.479929 0.000000 0.000000 0.000000 0.000000 0.000000 0.000000 8.090918 6.994818 10.318495 -4.099456 -5.408138 1.695372 -23.085183 50.564604 17.416481 0.000000 0.000000 0.000000 -9.460370 9.148548 9.255768 4.275947 -9.984450 0.697870 1.461788 0.578202 -8.684652 0.000000 0.000000 0.000000
21.051989 67.619029 301.922462 5.455801 -6.710509 -12.367283 -0.260924 -1.181703 12.780947 0.046960 -0.485914 0.148904 -1.347359 15.255061 0.776003 0.000000 0.000000 0.000000 -5.783661 3.339643 -3.532434 -19.171738 -23.948132 -11.255540 -2.513201 2.405092 -33.643595 32.736359 -42.861608 33.165089 0.000000 0.000000 0.000000 0.000000 0.000000 0.000000 2.494304 -6.109704 -2.612139 3.298833 3.863347 -1.984187 -3.959922 5.746236 2.409564 7.832357 -7.534625 -1.160951 0.000000 0.000000 0.000000 0.000000 0.000000 0.000000 5.278791 6.539063 13.925436 1.982913 -7.085401 4.253408 -32.916451 54.976890 26.463126 0.000000 0.000000 0.000000 -15.208860 8.339257 13.096791 9.749106 -10.128480 2.000087 -0.349353 -4.627803 -7.737108 0.000000 0.000000 0.000000
20.839258 68.028771 300.624159 6.964873 -8.232791 -19.356364 -0.046982 -1.178790 19.990383 0.055139 -0.520256 0.205118 -0.687698 16.340685 0.759797 0.000000 0.000000 0.000000 -7.307154 5.767293 -3.319128 -19.859529 -25.273369 -12.094712 2.130313 4.494408 -33.767279 30.400467 -47.826378 32.190660 0.000000 0.000000 0.000000 0.000000 0.000000 0.000000 0.359779 -4.950557 -2.651026 5.249492 1.856598 -2.316289 -3.013895 6.776136 1.960826 6.729368 -7.360982 -0.846897 0.000000 0.000000 0.000000 0.000000 0.000000 0.000000 0.583526 6.458494 20.997773 7.715855 -8.096701 6.234186 -36.292014 56.536482 27.432397 0.000000 0.000000 0.000000 -23.719384 9.298685 20.628645 16.353377 -13.856531 4.334374 -2.325015 -13.518986 -4.658273 0.000000 0.000000 0.000000
20.615563 69.119112 299.546294 8.550977 -10.004812 -15.038097 -0.350288 -0.635334 15.927103 0.180485 -0.619188 0.261776 0.002104 16.513250 0.691029 0.000000 0.000000 0.000000 -8.906282 7.940229 -3.194909 -17.836721 -23.910123 -10.523878 6.790644 4.994405 -32.020438 25.150754 -56.831357 27.795950 0.000000 0.000000 0.000000 0.000000 0.000000 0.000000 -3.158750 -2.377077 -2.251306 7.867141 -2.895162 -1.941379 1.838745 6.039525 0.472332 1.573257 -5.840202 0.114684 0.000000 0.000000 0.000000 0.000000 0.000000 0.000000 -3.708911 9.255526 16.806075 10.936904 -10.739948 7.604456 -31.841102 52.384394 21.054089 0.000000 0.000000 0.000000 -30.079951 12.940763 17.853589 22.503970 -15.529982 6.526083 -1.608945 -32.855650 9.020035 0.000000 0.000000 0.000000
20.321717 70.419022 298.745402 10.020351 -12.036185 -0.815164 -0.531950 -0.163910 2.013759 0.168128 -0.712648 0.314653 0.122181 16.510255 0.598682 0.000000 0.000000 0.000000 -10.312185 10.435328 -3.089169 -17.830020 -24.801330 -10.660007 12.955284 7.505218 -32.139387 27.584879 -62.877180 35.397718 0.000000 0.000000 0.000000 0.000000 0.000000 0.000000 -8.129971 2.200115 -1.129623 11.783664 -10.157960 -1.064656 11.726106 0.864266 -1.302708 -9.614092 -1.156648 2.682168 0.000000 0.000000 0.000000 0.000000 0.000000 0.000000 -4.394514 16.221884 2.681092 11.133705 -15.054745 8.315634 -24.120005 46.938815 10.528776 0.000000 0.000000 0.000000 -31.659098 20.188110 6.553306 27.457482 -14.065632 7.757644 3.072174 -47.395309 22.625994 0.000000 0.000000 0.000000
19.782047 71.620825 297.952334 11.283246 -14.180762 19.504509 -0.565341 0.235827 -17.953396 -0.011474 -0.743969 0.360103 -0.718238 17.044825 0.541354 0.000000 0.000000 0.000000 -11.321112 11.455321 -2.832719 -17.593308 -24.283821 -10.353136 16.890629 8.555849 -34.210267 39.829219 -65.036899 53.794047 0.000000 0.000000 0.000000 0.000000 0.000000 0.000000 -17.204402 13.340683 2.946051 21.384408 -26.160250 0.785162 13.729384 0.502602 -0.057174 -15.722534 2.921352 3.332354 0.000000 0.000000 0.000000 0.000000 0.000000 0.000000 2.793121 24.222895 -19.114942 11.643732 -20.361642 9.654907 -17.592854 37.759261 -2.648633 0.000000 0.000000 0.000000 -27.022395 29.053991 -11.245355 29.953888 -10.687719 7.393583 5.297376 -55.822273 23.535414 0.000000 0.000000 0.000000
19.021992 72.714575 297.468215 11.255082 -15.550315 39.780992 -0.194390 0.230022 -38.149826 -0.196890 -0.692972 0.371536 0.013026 15.142479 0.461436 0.000000 0.000000 0.000000 -11.412668 12.776974 -2.641804 -17.584670 -24.925403 -10.565460 18.168324 10.605034 -32.458553 48.700994 -66.264284 66.497837 0.000000 0.000000 0.000000 0.000000 0.000000 0.000000 -27.241870 25.183364 9.742774 30.766433 -43.714234 6.350886 19.464990 -1.138255 -2.779287 -21.620362 5.945972 5.675386 0.000000 0.000000 0.000000 0.000000 0.000000 0.000000 18.852297 28.297663 -44.157173 11.679772 -27.881727 11.337691 -14.376109 23.985720 -12.821497 0.000000 0.000000 0.000000 -17.961503 33.869959 -31.964517 30.716636 -5.652715 5.785842 0.430512 -54.036563 13.818891 0.000000 0.000000 0.000000
18.265901 73.658830 297.241681 11.544898 -17.332112 48.977787 -0.332838 0.230266 -47.117599 -0.195215 -0.760146 0.373617 -1.725056 16.753422 0.488985 0.000000 0.000000 0.000000 -11.602452 14.784846 -2.405195 -17.515739 -25.757521 -10.757211 28.612949 13.529921 -36.663248 63.294194 -69.844963 89.253842 0.000000 0.000000 0.000000 0.000000 0.000000 0.000000 -36.900553 33.115074 17.316795 39.797358 -54.956489 12.649825 23.357622 -3.654428 -3.831097 -25.701194 10.393513 6.485330 0.000000 0.000000 0.000000 0.000000 0.000000 0.000000 32.195699 29.681888 -57.853185 11.377963 -34.940723 12.797901 -14.101820 8.044440 -20.623203 0.000000 0.000000 0.000000 -12.316865 33.433393 -41.896683 27.741552 -1.837323 3.816041 -4.579486 -41.825060 -0.655823 0.000000 0.000000 0.000000
17.643736 74.126123 297.375131 12.189932 -19.600678 50.280359 -0.584493 0.236338 -48.045659 -0.305143 -0.549640 0.375393 -3.752425 19.885903 0.672853 0.000000 0.000000 0.000000 -11.931159 17.023316 -2.052772 -17.822943 -27.164202 -11.383213 21.970481 11.464396 -38.569306 57.982339 -64.822180 78.957676 0.000000 0.000000 0.000000 0.000000 0.000000 0.000000 -39.947450 35.969065 20.365606 41.039294 -57.944960 14.567646 26.549124 -7.845934 -2.214337 -27.744508 13.695140 6.227625 0.000000 0.000000 0.000000 0.000000 0.000000 0.000000 39.505552 31.823691 -62.437462 10.829827 -38.765425 13.461014 -16.283735 -10.339698 -24.850567 0.000000 0.000000 0.000000 -9.692139 33.637611 -43.192594 24.678414 -0.799886 2.942251 -4.548825 -23.461494 -10.558298 0.000000 0.000000 0.000000
17.041290 74.233215 297.548410 12.789495 -21.609438 47.071336 -0.846216 0.412636 -44.451757 -0.400902 -0.325850 0.370669 -6.013929 23.246104 1.099815 0.000000 0.000000 0.000000 -12.060012 18.840185 -1.793750 -17.627464 -27.439423 -11.355895 13.382016 8.714075 -38.445512 52.433054 -60.175765 66.782296 0.000000 0.000000 0.000000 0.000000 0.000000 0.000000 -34.691167 34.197062 16.882606 32.907982 -53.222702 10.748647 29.828441 -11.737941 -1.901021 -28.355839 14.086625 6.276160 0.000000 0.000000 0.000000 0.000000 0.000000 0.000000 40.432183 34.583642 -60.617715 9.637321 -38.955631 13.020878 -17.529926 -16.779577 -26.646668 0.000000 0.000000 0.000000 -8.470671 34.640958 -39.952178 22.189870 -2.522087 2.909653 -3.284607 -15.271740 -12.685446 0.000000 0.000000 0.000000
16.419603 74.379614 297.512580 13.160701 -23.072550 39.457578 -1.157454 0.425373 -36.538878 -0.505467 -0.051153 0.361012 -8.111568 26.098735 1.673574 0.000000 0.000000 0.000000 -11.985904 20.102632 -1.626969 -17.246698 -26.186462 -10.750122 2.391031 6.544133 -29.703959 40.818342 -61.572282 43.131176 0.000000 0.000000 0.000000 0.000000 0.000000 0.000000 -25.142569 28.198467 10.036527 23.382129 -42.589942 6.788623 34.386939 -16.416449 -2.240468 -29.204900 14.440295 6.590279 0.000000 0.000000 0.000000 0.000000 0.000000 0.000000 33.352300 36.298528 -50.623285 5.903141 -34.209930 10.103419 -15.921513 -12.252577 -25.935386 0.000000 0.000000 0.000000 -8.860043 35.462432 -32.389303 19.013707 -5.607569 3.108883 -2.194676 -9.997120 -13.020329 0.000000 0.000000 0.000000
15.535809 74.307364 296.708726 13.271707 -23.391059 26.694858 -1.553530 -0.302527 -23.649504 -0.547929 -0.030151 0.363301 -10.386788 28.525684 2.404442 0.000000 0.000000 0.000000 -11.946974 20.968981 -1.517694 -16.026747 -24.652484 -9.619585 -17.508415 -2.160826 -27.683960 35.177757 -50.280181 19.884490 0.000000 0.000000 0.000000 0.000000 0.000000 0.000000 -17.233378 20.332313 4.461666 15.570983 -31.513161 5.520611 41.590501 -24.475641 2.105945 -29.995922 17.987616 4.271677 0.000000 0.000000 0.000000 0.000000 0.000000 0.000000 18.764263 35.631059 -31.869682 4.474334 -25.831992 8.150488 -14.385565 -1.513587 -18.556224 0.000000 0.000000 0.000000 -13.533538 34.165462 -18.865231 16.513647 -8.796923 3.369928 -2.402476 -6.692504 -10.335859 0.000000 0.000000 0.000000
14.926291 74.986838 296.775354 14.004239 -25.240482 5.785412 -1.618179 -0.249531 -2.334537 -0.593988 0.164719 0.365068 -13.133004 31.132744 3.405837 0.000000 0.000000 0.000000 -12.225030 22.069453 -1.320545 -15.686725 -22.962808 -8.920501 -21.624305 -5.381608 -31.714762 33.790343 -43.806392 14.406099 0.000000 0.000000 0.000000 0.000000 0.000000 0.000000 -13.847373 15.656649 2.062495 11.520433 -23.494672 5.246193 54.094119 -34.567658 11.002650 -40.675708 25.484427 10.249906 0.000000 0.000000 0.000000 0.000000 0.000000 0.000000 -0.656061 34.411389 -3.760148 6.520649 -18.357212 7.687023 -14.959832 2.841639 -15.631527 0.000000 0.000000 0.000000 -24.158828 33.971020 4.730600 14.325482 -14.522522 4.178095 -2.622730 -6.212091 -8.310217 0.000000 0.000000 0.000000
14.655412 75.961984 297.421493 14.962558 -27.539459 -10.007745 -2.066659 0.256914 13.981976 -0.668069 0.490670 0.366165 -15.403552 32.826326 4.297190 0.000000 0.000000 0.000000 -12.592271 23.018067 -1.121648 -16.113855 -21.270251 -8.607850 -32.667939 -10.284358 -34.273278 38.895859 -37.342118 10.415023 0.000000 0.000000 0.000000 0.000000 0.000000 0.000000 -13.585542 14.017021 1.597413 10.960485 -19.765170 4.859042 63.282937 -39.327020 17.051665 -51.045224 27.570223 19.857368 0.000000 0.000000 0.000000 0.000000 0.000000 0.000000 -12.229788 31.283277 15.916935 6.431048 -14.618019 6.881200 -14.703486 5.069296 -14.036454 0.000000 0.000000 0.000000 -33.369938 31.833443 22.548650 12.206189 -18.097597 4.476428 -2.892287 -9.145778 -5.680726 0.000000 0.000000 0.000000
